<svg xmlns="http://www.w3.org/2000/svg" viewBox="0 0 87.67 101.37"><defs><style>.cls-1{fill:white;}</style></defs><title>logo_Asset 11</title><g id="Layer_2" data-name="Layer 2"><g id="Layer_1-2" data-name="Layer 1"><path class="cls-1" d="M1.07,34.05c-.07.17,0,.11,0,.14C1.22,33.9,1,34.06,1.07,34.05Z"/><path class="cls-1" d="M1.46,31.2l.1.05L1.46,31l-.1-.21Z"/><path class="cls-1" d="M1.66,29c-.26,0-.23.18-.15.38s.09.2.12.3a.38.38,0,0,1,0,.14.62.62,0,0,1-.07.19l-.14.08.4.21a3.67,3.67,0,0,0,0-.46,3.37,3.37,0,0,0-.13-.32A.71.71,0,0,1,1.66,29Z"/><path class="cls-1" d="M2.66,29c-.18-.15-.2-.24,0,0l0,0A.19.19,0,0,1,2.66,29Z"/><path class="cls-1" d="M2.68,29.08c0,.09.14.08,0,0Z"/><path class="cls-1" d="M2.62,28.74l.11.22a2.11,2.11,0,0,1,.29.29A1.61,1.61,0,0,0,2.62,28.74Z"/><path class="cls-1" d="M2.3,28.18l0,.15C2.4,28.38,2.43,28.41,2.3,28.18Z"/><path class="cls-1" d="M2.44,28.59l-.09-.27c-.09-.11-.26-.31,0,.11C2.22,28.23,2.36,28.44,2.44,28.59Z"/><path class="cls-1" d="M2.32,28.54c-.16-.11-.18,0-.36-.35a.77.77,0,0,0,.25.43C2.31,28.7,2.3,28.63,2.32,28.54Z"/><path class="cls-1" d="M1.1,28.64l-.15.17.19.26C1,28.94,1.27,28.69,1.1,28.64Z"/><path class="cls-1" d="M4.55,28.84A7.54,7.54,0,0,0,4,28.11l-.15.29A1.39,1.39,0,0,1,4.55,28.84Z"/><path class="cls-1" d="M4,28.11l.21-.45C3.79,27.74,3.81,27.91,4,28.11Z"/><path class="cls-1" d="M1.71,27.32a4.2,4.2,0,0,0,.16.42l.16.37-.15-.4a2.7,2.7,0,0,1-.1-.31v-.12Z"/><polygon class="cls-1" points="6.17 28.51 6.21 29.06 6.2 28.22 6.17 28.51"/><path class="cls-1" d="M7.17,28.18c.07.47.67.68.63,1,.25-.13.28-.56.29-1C8,28.45,7.7,28.46,7.17,28.18Z"/><path class="cls-1" d="M8.17,27.6a2.47,2.47,0,0,0-.07.61A1.12,1.12,0,0,0,8.17,27.6Z"/><path class="cls-1" d="M4.92,27.57a1.51,1.51,0,0,0,.66.5l-.5-.54Z"/><path class="cls-1" d="M5.06,27.51l0,0,.36-.07Z"/><path class="cls-1" d="M4.87,27.57h0C4.87,27.51,4.85,27.5,4.87,27.57Z"/><path class="cls-1" d="M2.81,27.46c.07-.36.35-.88-.36-1.14C2.5,26.74,2.91,26.9,2.81,27.46Z"/><path class="cls-1" d="M4.27,26.92l-.49,0c.09.14.29.33.26.52Z"/><polygon class="cls-1" points="4.37 26.66 4.27 26.92 4.45 26.91 4.37 26.66"/><path class="cls-1" d="M7.07,27.19c0-.34.2-.43.4-.55a1.7,1.7,0,0,0-.84,0C6.72,26.9,6.82,27.29,7.07,27.19Z"/><path class="cls-1" d="M6.06,27.29l0,0C6,27.19,6,27.18,6.06,27.29Z"/><path class="cls-1" d="M9.68,25.9l-.11-.12.07.13Z"/><path class="cls-1" d="M6.53,26.58c-.25-.06-.27.13-.26.36a1,1,0,0,1,.37-.25C6.6,26.59,6.57,26.52,6.53,26.58Z"/><path class="cls-1" d="M8.61,27.1a3.39,3.39,0,0,0-.54-.28C8.29,27,8.68,27.29,8.61,27.1Z"/><path class="cls-1" d="M6.24,27.39v0C6.37,27.54,6.32,27.48,6.24,27.39Z"/><path class="cls-1" d="M6.24,27.39a1.37,1.37,0,0,0,0-.46.78.78,0,0,0-.18.31Z"/><path class="cls-1" d="M7.84,21.33c0,.08-.11.1-.12.45s-.31.28-.65.11c-.12.63,1.42,2.75,2.5,3.88a1.29,1.29,0,0,1-.15-1.15C9.05,24.3,8,24.13,8,23.36c.31-.6.56,0,1,.3a1.84,1.84,0,0,1-.42-1.25,4,4,0,0,0-.13-.75,2.8,2.8,0,0,0-.16-.42c0-.1,0-.07-.06-.1s-.42.28-.37.36C7.83,21.38,8,21.31,7.84,21.33Z"/><path class="cls-1" d="M8.75,26l-.12.14a3.16,3.16,0,0,1,1.12.71,1.3,1.3,0,0,0-.1-.93l-.89.19Z"/><path class="cls-1" d="M7.86,26.39c-.26-.73,0-1.2-.72-1.86-.45.26,0,.73-.12,1.14.69-.47,0,.46.79.64a.81.81,0,0,1-.33.33,2.85,2.85,0,0,1,.6.18l0,0H8c-.09-.08-.13-.12-.06-.09s0,0,0,0a2.18,2.18,0,0,1-.11-.27c.32.07.14.17.11.27l.05.11H8l.3-.32.29-.33C8.4,26.09,8.2,26.18,7.86,26.39Z"/><path class="cls-1" d="M2.19,25a.34.34,0,0,1,.1.11C2.29,25,2.29,24.94,2.19,25Z"/><path class="cls-1" d="M2.68,25.14c0,.11.07.35-.14.38s-.15-.26-.26-.44c0,.21-.15.58.34.67v-.1a2.39,2.39,0,0,1,1.21.68A7.22,7.22,0,0,0,2.68,25.14Z"/><path class="cls-1" d="M5.12,25.45l.46-.6-.64-.4.21.32C4.71,24.82,5,25.18,5.12,25.45Z"/><polygon class="cls-1" points="9.98 26.25 10.34 27.07 10.09 25.82 9.98 26.25"/><polygon class="cls-1" points="10.8 25.86 11.18 26.59 11.16 26.08 10.8 25.86"/><path class="cls-1" d="M52.92,4.85l.2.06Z"/><path class="cls-1" d="M51.64,4.1l-.07,0C51.65,4.14,51.69,4.13,51.64,4.1Z"/><path class="cls-1" d="M31.55,17.27c.88.93,2.14,2.44,1.37,1.17l-.8-1.21C32,17.55,31.82,17.48,31.55,17.27Z"/><path class="cls-1" d="M40.63,2.49h-.09l-.07.14c0,.15.06.46.09.67C40.56,3,40.52,2.45,40.63,2.49Z"/><path class="cls-1" d="M40.64,1.66,41,1.56A1.63,1.63,0,0,0,40.64,1.66Z"/><path class="cls-1" d="M60,8.77l.29,0C60,8.56,60.08,8.72,60,8.77Z"/><path class="cls-1" d="M19.43,22.24a1.73,1.73,0,0,0,1,.38C19.75,22.14,19,21.36,19.43,22.24Z"/><path class="cls-1" d="M48,12.19a2.22,2.22,0,0,0,.62-.72A1.77,1.77,0,0,0,48,12.19Z"/><path class="cls-1" d="M21.09,22.34c-.1-.09-.18-.13-.27-.2-.08.25-.17.46-.43.48C20.86,23,21.27,23.16,21.09,22.34Z"/><path class="cls-1" d="M85.27,23.81l0,0S85.31,23.83,85.27,23.81Z"/><path class="cls-1" d="M86.07,31.7a3.29,3.29,0,0,1-.11-.35A1,1,0,0,0,86.07,31.7Z"/><path class="cls-1" d="M14.53,25c-.15.12,0,.11,0,0Z"/><path class="cls-1" d="M11.66,21.93a1.4,1.4,0,0,0-.17-.45A1.81,1.81,0,0,1,11.66,21.93Z"/><path class="cls-1" d="M19,15h0C19,15,19,15,19,15Z"/><path class="cls-1" d="M14,24.72a1.45,1.45,0,0,0,.39.18A1.49,1.49,0,0,0,14,24.72Z"/><path class="cls-1" d="M14.3,25.13l-.21,0C14.15,25.25,14.22,25.34,14.3,25.13Z"/><path class="cls-1" d="M14.76,24.89a.5.5,0,0,1-.35,0c.07,0,.12.09.12.13Z"/><path class="cls-1" d="M71.52,16.14l0,0C71.75,16.22,71.67,16.18,71.52,16.14Z"/><polygon class="cls-1" points="31.38 6.97 31.36 6.99 31.39 6.98 31.38 6.97"/><path class="cls-1" d="M31.91,6.51a.72.72,0,0,1-.52.47l.44.31Z"/><path class="cls-1" d="M56,6.59l-.34-.38c.63.08,1,.37.67-.05-.33.43-1.66-.9-2-.47l-.22-.26c.08.05.11,0,.18.08-.41-.53-.59.1-1.25-.36-.22-.18-.35-.34-.15-.3l-.6-.2c-.15-.1-.07-.16.08-.06l-.84-.44h0a4.43,4.43,0,0,1-.65-.06c-.17-.19.13,0,.11-.08l-.52-.15c-.12-.23.33-.13.63.07-.17-.72-.41-.08-1.26-.94l.5.21c-.16-.44-.58-.56-1-1,.1.17.86,1.06.27.87A1.25,1.25,0,0,0,49,2.7c.07-.18-.23-.3-.58-.49L48.5,2c-.41-.15-.42,0-.68,0a1,1,0,0,1-.51-.74c-.68-.44.39.59-.42.18A4.45,4.45,0,0,0,45.25.62c-.38-.32.08-.13,0-.29l-.36,0c-.08-.05-.05-.11,0-.14-.3-.08,0,.27-.5.09,0,.06-.11,0-.2-.05L43.93.1l-.1-.1-.1,0a1.41,1.41,0,0,0-.91.49c-.14,0,.05-.21,0-.3a9.12,9.12,0,0,0-1.24,1.22L41,1.56c.43,0,0,.5-.4.93h.06s.07.15.11.21l.21.46.3.66-.14.76-.11.75a8.49,8.49,0,0,1-.5-2c0,.2,0,.4,0,.59a3.23,3.23,0,0,1-.31-.61c0-.12-.09-.24-.13-.37l0-.09v0a.85.85,0,0,1,.12-.31l.29,0c.13-.25.25-.52.18-.65a1,1,0,0,1-.21.2c0-.07.05-.12,0-.14s-.09.09-.19.22l-.24-.19v.13l-1,.37a10,10,0,0,1-1.88,2c.14-.32-.12-.32-.22-.54.39.07.75-.56,1.31-.83-.29.14-.28,0-.23-.08l-.86.77c-.08-.19-.27,0-.55.05.38.24-.55.62-.87.95-.09-.1-.07-.27.4-.51-.65,0-.42.78-1,.84.11-.07.18-.08.19-.17-.2.25-.88.54-.79.35l.11-.07c-.76.39-2.25,1.3-2.19,1.65a1.69,1.69,0,0,1-.09-.49L32,7.26l-.14.32c.16.46.39,1,.55,1.44L33,10.46c-.28-.56-.71-1.29-1.19-2.09l-.34-.56-.06-.06-.11-.13A.42.42,0,0,1,31.36,7a1.85,1.85,0,0,0-.76.46c.14,0,.5.18.35.3a4.29,4.29,0,0,0-1.09.12c.21-.05.23.45-.06.6,0-.08-.24-.36-.16-.46l-.49.79c.14-.17-.15-.34-.37-.35.12,0-.61.35-.78.5l.35-.09c-.83.41-.49,1-1.29,1.42.05-.13,0-.61-.46-.42a7.26,7.26,0,0,1-.25.87l0,.07c0,.07.09.24.13.35l.29.75c.19.49.35,1,.5,1.4a7.63,7.63,0,0,1,.46,2L27,14.42l0,1.33c-.26-.64-.58-1.47-.92-2.4l-.53-1.44-.13-.37-.07-.19c0-.07,0,0,0-.07l.08-.15A11,11,0,0,1,26.17,10c-.35.09-.16-.08-.6.19-.22,0,.16-.3.28-.38l-1.08.54c.17.19-.67.68-.52.84l1-.89c.17.19-.29,1-1.06,1.39-.24,0-.08-.47-.14-.53a1.89,1.89,0,0,1-.72.54l.25-.3c-.46.16-.5.68-1.12.76-.18.09-.67,0-.62.16a1.15,1.15,0,0,1,.6.47l.06.09.21.36.78,1.37c.47.85.83,1.56,1,2a23.19,23.19,0,0,1-2.81-2.35,5.34,5.34,0,0,1-.41-.57.13.13,0,0,1,0-.08.7.7,0,0,1,0-.24c0-.17.1-.35-.07-.36,0,.06-.09.23-.14.29-.21.05,0-.22-.4,0,.06.25-.8.44-.08.29-.34.28-.43.19-.87.46.11,0,.08.2,0,.41l-.09.16,0,0a.7.7,0,0,0,0,.14l.08.31a2.88,2.88,0,0,1,.11.89,5.45,5.45,0,0,0-.43-.68c-.15-.21-.33-.45-.32-.38-.79.43-1.27.58-2,1-.1,0-.48.13-.38,0a1.19,1.19,0,0,1-.36.36c-.54.07.48-.32,0-.34,0,.14-.48.5-.76.76.2.13.76-.39,1-.65a.32.32,0,0,1,0,.25l0,.08,0,0,.06.19c.09.26.17.52.24.78A5.94,5.94,0,0,1,17.11,20c-.35.78-1-1.12-.95-.79-1.35.28.9,3.79-.89,2.88-1.07-1-1.35-2.3-1.93-3.11.24-.72,1.2.32,1.51.1l-.74-.34c-.07-.48.08-1,.47-.73a.76.76,0,0,0-.35-.21l-.29.13-.75.41a15.94,15.94,0,0,1-1.65.86l-.21.23c0,.05-.07,0,0,.13a1,1,0,0,0,.21.3l.19-.31c.78.76.18,1.52.78,1.74,0,.82.08,2-.75,1.73L11,21.84c.21.34.77.54.71.1.07.63-1.76-1.2-1.12.47l.86.64c0,.78.15,2.19-.57,2,.88,1,0-.18,1.17,1-1.27-1.54,1.36-.38-.17-2,1.29,1.45,1,.42,2.32,1.65-.25-.4-.62-.72-.07-.66A3,3,0,0,1,14,24.7l0,0-.05,0c0-.07,0-.08,0,0a2.63,2.63,0,0,1-.58-.54c-.33-1,.35-1.27.28-1.87.36.09.18.53.57.92l-.1-.9c.57.92,1.58,1.32,1.3,2.1l.56-.15c.63.42,1.2.5,1.23,0,.38.12,0-1.35.23-.48l.48-1,.15.25c.92-.16.67-2.45,2.72-.89.12-.38.2-.85.84-.73l.64.92c.16-.48,1.63.55,1.2-.53,1.92,2.51,2.06-.1,3,.12l-.75-1.35c.47-.1.66-.66.86-1.44L25.85,18c-.13-1.21,1.64.32,2.28-.13.23.5,0,.45-.32.23,2.47,2.43.59-2.89,2.54-1.2-.08-.56.15-.46.47-.21,0,0,0,0,0,.09a.14.14,0,0,0,.09,0c.21.18.44.39.66.55a4.51,4.51,0,0,0-.62-.58,1.11,1.11,0,0,0,.29-.79l.89,1.34s0,0,0-.06c.51.41-.21-.74-.92-1.73a4.5,4.5,0,0,0-.2-1c1.47,2.16.12-1,1.75,1.24-.53-1.25.57-1.43-.76-4,.2.32.35.44.25.53.4.16.8.32.61-.5L34,13.5l-.89-2.71a6.28,6.28,0,0,1,2,3.08c-.49-2.56.15-1.13-.46-3.63l.65,1.2c.2-.17-.36-2,.35-1.05,1.82,2,2.7-1.06,5.24.37-1.16-1.72-.78-1.41-.3-1s.84.95.12-.48a11.7,11.7,0,0,1,1.14,2.07c-.11-.53.16-.28.3-.2s.16,0-.22-1.35c.37.88.46,1.37.69,1.88-.07-.21-.24-.85,0-.33a11.26,11.26,0,0,1,.38,1.21c0-.33-.81-3.2-1.6-5.9.61,1.11.59.88.34-1a4.41,4.41,0,0,1,.46,2.19c.2,0,.94.78.69-1.52.11.55.21,0,.23-.27.34-.1.37.11.71-.31l-.1-.33c0-1.45.14-1.77.25-1.5s.21.76.37.67l0,.28c.28,1.23.33,1,.43.88s.2-.27.33,1.06l.22-1.72c.3-1.8.42-1.15.47-.21s0,2.15.35,1.6l.1-1c.27-.53.13.77-.18,2.24s-.76,3.1-.8,3.36a2.6,2.6,0,0,1-.3.63c-.54,2.25.76-2,1.2-2.3-.42,1.14-1.18,2.76-1.18,3.08-.37.92,1.84-3.18,1.45-.81a4.85,4.85,0,0,1,1.31-2.19c.58-.05-.61,3.65,1.23,1.33a3.18,3.18,0,0,1-.29.67c.7-.47,1.67-.51,2.65-1.76C48.69,14.88,54.7,8.37,52,13l1.14.28-.29.45c.47.63,1.33-.34,2.17-1.3a2.33,2.33,0,0,1-.53,1c.41,1.4.63,1.23,2.69-.56l-.75,1.48c.69-.71.08,2.92,2,1.73a2.89,2.89,0,0,1-.47.58c1-.56,1.07.71,1.31,1.5s.66,1.09,2.27-1.27L62.94,16c-.66-.84,1.35-2,1.46-3.05.5-.09,0,2-.53,2l.07-.28c-1.62,2.45.58,1.47-.42,3.15,1.83.75,2.81,2.88,4.46,3.68l.82-1.84.52.37c-.08.48-.58,1.45-1,1.19-.35,1.08,1.18-.52,1.4-.88.42,1.06-1.47,1.86-1.25,2l.42,0,0-.23c.68-.58,1.13-1.3,1.59-1,.13.48-.43,1.1-.34,1.22-.07.12-.06.19.17.13l.67.45.44-1.41c.69-.49.65.39,1.15-1.22a1.44,1.44,0,0,0,.84,2c.66.3,1.41.42,1.38.8,1-.65,1.39-.41,1.89-.06,0-.29.64-1.59,1-1.19-1.64,2.46.24,1.52-.37,3.42.31-1.29,1.58.27,1.93-1.54.3.37-.48.88-.48,1.55,1.48-.46,1.87,1.38,3.3,1.5.16-.24.18-.71.66-1l0,.75,0,.72c.32,0,1-1.29,1-.32,0-.22.13-.55.33-.56a2.94,2.94,0,0,0,.74.63,4.25,4.25,0,0,0,.43.22l.39.17c.23,0,.22.19.28.32a.76.76,0,0,1,.07.21v.28c0,.81-.33,1.49-.33,3,.12-.35.21-.12.28.15,0-.17.27,0,.4,0a6.5,6.5,0,0,0-.12,1.08c.34.2.32,1.16.55,1.27l-.1-.34c.29.45.54-.64.72-.57-.18-.51.29-1.34,0-2.18,0-.18.07.16.12.06a1.89,1.89,0,0,1-.06-1l0,.06c0-.76,0-1.3.05-1.89l.06-1a3.44,3.44,0,0,0,0-1.09l-.08.22a4.67,4.67,0,0,1,0-.57c-.19-.17.15.83-.08.72,0-.29.18-.94-.51-1.15-.47-.28-.92-.56-1-.77-.42-.25,0,.2-.37,0l-.07-.14-.16,0c-.27-.18-.36-.35-.33-.42a2.31,2.31,0,0,0,.28.14,8.65,8.65,0,0,0-1.14-.68l.38.29c-1.2-.62-2.56-1.56-3.77-2.07l.05.11c-.92-.39-.65-.47-1.62-1h0a2.57,2.57,0,0,1-.75-.33c.28.07-.37-.4,0-.3-1-.43-.52-.18-1.26-.3l-.08-.19a1.51,1.51,0,0,1-.8-.24c.44.14-.21-.34.29-.2-.85-.81-1.6-.63-1.86-1.24-.63,0,.76.67.47.58.16.22-.5,0-.8-.21s-.32-.7-1.11-1.16c.08,0,.1,0,.17.08-.25-.25-.64-.24-.93-.58-.31.07-.47-.29-.66-.08l.76.37a3.76,3.76,0,0,1-1.6-.66,1.59,1.59,0,0,1,.48.08c-.16-.19-.41-.18-.58-.37.2-.21.92.47,1.46.54-.16-.23-.94-.32-.57-.45-.51.14-.76-.5-1.44-.56l.12-.12A1.74,1.74,0,0,1,70,15l.39,0c-.53-.09-.76-.63-1.22-.79.88.51.09.29.4.62-1.19-.43-.4-.75-1.64-1.39.18.08.56.45.27.37a2.75,2.75,0,0,1-.58-.56c-.82-.44,0,.23-.36.12-.17-.34-.44-.16-.82-.3l.09-.15c-.85-.63-.43.18-1.18-.42h.47l-.46-.19.19-.12a2.5,2.5,0,0,1-1.1-.58c0,.17-.22.25-.63,0-.22-.25.24-.06-.35-.37a.47.47,0,0,1,.56.23c.05,0,.18,0,.24-.06a3.33,3.33,0,0,0-.94-.58,1,1,0,0,1,.2.17l-1-.27c-.1-.14,0-.12.16-.11a6,6,0,0,1-.59-.21c.14-.09.2-.23.58-.09L61.91,10c0-.09-.32-.39-.19-.38-.39-.33-1.22-.38-1.74-.82a.53.53,0,0,1-.25-.06,5.25,5.25,0,0,0-1.67-1l-.23-.45c-.54-.24.33.59-.57.18-.64-.27-.11-.33-.28-.52a2.2,2.2,0,0,1-1.46-.62A3.58,3.58,0,0,1,56,6.59ZM49.63,3c.15,0,.46.08.51.24C49.89,3.37,49.82,3.21,49.63,3Zm-10-.36A.55.55,0,0,1,40,2.47,1.11,1.11,0,0,1,39.58,2.67ZM16.06,23.46l0-.06C16.58,23.7,16.38,23.58,16.06,23.46Zm-.87-.21a.88.88,0,0,0,.22.44c-.11-.28,0-.35.22-.34C15.42,23.1,15.24,22.95,15.19,23.25Zm55.35-1.3,0-.34C71,21.41,70.79,21.66,70.54,21.95Z"/><path class="cls-1" d="M40.64,1.75a.13.13,0,0,1,.08.07C40.76,1.77,40.75,1.73,40.64,1.75Z"/><path class="cls-1" d="M60,8.78h0l0,0Z"/><path class="cls-1" d="M20.94,13.07a.67.67,0,0,1,.27-.05S21.12,13,20.94,13.07Z"/><path class="cls-1" d="M12.85,26.1l.26-.38c-.17.11-.36-.07-.54-.18C12.71,25.75,13,26,12.85,26.1Z"/><path class="cls-1" d="M6.45,22.25c0,.06-.13,0-.14.14l.23.36a.34.34,0,0,0,.14-.33C6.68,22.33,6.55,22.15,6.45,22.25Z"/><path class="cls-1" d="M10.72,23.18c-.47-.76-.56-.38-.74-.12,0,0,0,0,0,0C10.55,24.13,10.64,23.66,10.72,23.18Z"/><path class="cls-1" d="M9.93,23.12a.32.32,0,0,1-.24.13C9.9,23.68,9.85,23.29,9.93,23.12Z"/><path class="cls-1" d="M14.74,24.12c-.26-.17.54,1.11.27.79C15.48,26,15.13,23.29,14.74,24.12Z"/><polygon class="cls-1" points="9.05 20.77 9.69 21.66 9.39 20.82 9.05 20.77"/><path class="cls-1" d="M11.48,20.36l-.57-.06a.52.52,0,0,1,.09.4C11.27,20.6,11.66,20.66,11.48,20.36Z"/><path class="cls-1" d="M11,20.71a.31.31,0,0,0-.24.34A.58.58,0,0,0,11,20.71Z"/><polygon class="cls-1" points="9.58 20.41 9.72 20.36 10.01 20.21 9.58 20.41"/><path class="cls-1" d="M16,18.18l.25-.58c-.19-.43-.45-.6-.52-.35S15.72,17.84,16,18.18Z"/><path class="cls-1" d="M13.9,17.61a.47.47,0,0,1,.26,0l-.09-.19Z"/><path class="cls-1" d="M15.16,16.82c0-.08.55-.52,0-.18C15.15,16.71,14.73,17,15.16,16.82Z"/><path class="cls-1" d="M21.93,13.21l-.11.07.44.75.79,1.34L22.32,14C21.8,13,22,13.28,21.93,13.21Z"/><path class="cls-1" d="M27.32,9c-.57.22,0,.28-.53.45-.08.15.43-.14.35,0C27.4,9.21,27.59,9.16,27.32,9Z"/><path class="cls-1" d="M27.14,9.48,27,9.62A.78.78,0,0,0,27.14,9.48Z"/><polygon class="cls-1" points="86.25 33.12 86.32 33.51 86.34 33.26 86.25 33.12"/><path class="cls-1" d="M86.71,33.86l-.13.09.11.12.1.12A.88.88,0,0,1,86.71,33.86Z"/><path class="cls-1" d="M48.82,2l-.05,0c0,.1.12.15.29.26Z"/><polygon class="cls-1" points="53.47 4.88 53.4 4.83 53.43 5.12 53.47 4.88"/><path class="cls-1" d="M57.43,6.85c-.15-.1-.36-.16-.51-.26C57.28,6.75,57.33,7.12,57.43,6.85Z"/><path class="cls-1" d="M86.6,67.32c.07-.17,0-.11,0-.14C86.45,67.47,86.63,67.31,86.6,67.32Z"/><path class="cls-1" d="M86.21,70.17l-.1-.05.09.21.1.21Z"/><path class="cls-1" d="M86,72.4c.26,0,.23-.18.15-.38s-.09-.2-.12-.3a.38.38,0,0,1,0-.14.62.62,0,0,1,.07-.19l.14-.08-.4-.21a3.66,3.66,0,0,0,0,.46,3.36,3.36,0,0,0,.13.32A.71.71,0,0,1,86,72.4Z"/><path class="cls-1" d="M85,72.35c.18.15.2.24,0,0l0,0A.19.19,0,0,1,85,72.35Z"/><path class="cls-1" d="M85,72.28c0-.09-.14-.08,0,0Z"/><path class="cls-1" d="M85,72.62l-.11-.22a2.1,2.1,0,0,1-.29-.29A1.61,1.61,0,0,0,85,72.62Z"/><path class="cls-1" d="M85.37,73.19l0-.15C85.27,73,85.24,73,85.37,73.19Z"/><path class="cls-1" d="M85.23,72.77l.09.27c.09.11.26.31,0-.11C85.44,73.14,85.31,72.92,85.23,72.77Z"/><path class="cls-1" d="M85.35,72.83c.16.11.18,0,.36.35a.77.77,0,0,0-.25-.43C85.35,72.67,85.37,72.74,85.35,72.83Z"/><path class="cls-1" d="M86.57,72.73l.15-.17-.19-.26C86.62,72.43,86.4,72.67,86.57,72.73Z"/><path class="cls-1" d="M83.12,72.53a7.54,7.54,0,0,0,.59.72l.15-.29A1.39,1.39,0,0,1,83.12,72.53Z"/><path class="cls-1" d="M83.71,73.25l-.21.45C83.88,73.63,83.85,73.46,83.71,73.25Z"/><path class="cls-1" d="M86,74a4.21,4.21,0,0,0-.16-.42l-.16-.37.15.4a2.7,2.7,0,0,1,.1.31v.12Z"/><polygon class="cls-1" points="81.5 72.85 81.45 72.31 81.46 73.15 81.5 72.85"/><path class="cls-1" d="M80.5,73.19c-.07-.47-.67-.68-.63-1-.25.13-.28.56-.29,1C79.69,72.91,80,72.91,80.5,73.19Z"/><path class="cls-1" d="M79.5,73.77a2.47,2.47,0,0,0,.07-.61A1.12,1.12,0,0,0,79.5,73.77Z"/><path class="cls-1" d="M82.75,73.8a1.51,1.51,0,0,0-.66-.5l.5.54Z"/><path class="cls-1" d="M82.6,73.86l0,0-.36.07Z"/><path class="cls-1" d="M82.79,73.79h0C82.8,73.85,82.82,73.87,82.79,73.79Z"/><path class="cls-1" d="M84.86,73.91c-.07.36-.35.88.36,1.14C85.17,74.62,84.76,74.47,84.86,73.91Z"/><path class="cls-1" d="M83.4,74.45l.49,0c-.09-.14-.29-.33-.26-.52Z"/><polygon class="cls-1" points="83.3 74.7 83.4 74.45 83.22 74.45 83.3 74.7"/><path class="cls-1" d="M80.59,74.18c0,.34-.2.43-.4.55a1.7,1.7,0,0,0,.84,0C80.95,74.47,80.84,74.07,80.59,74.18Z"/><path class="cls-1" d="M81.6,74.08l0,0C81.64,74.17,81.67,74.18,81.6,74.08Z"/><path class="cls-1" d="M78,75.46l.11.12L78,75.46Z"/><path class="cls-1" d="M81.14,74.79c.25.06.27-.13.26-.36a1,1,0,0,1-.37.25C81.07,74.78,81.1,74.84,81.14,74.79Z"/><path class="cls-1" d="M79.05,74.27a3.4,3.4,0,0,0,.54.28C79.37,74.37,79,74.08,79.05,74.27Z"/><path class="cls-1" d="M81.42,74v0C81.3,73.82,81.34,73.89,81.42,74Z"/><path class="cls-1" d="M81.42,74a1.37,1.37,0,0,0,0,.46.78.78,0,0,0,.18-.31Z"/><path class="cls-1" d="M79.82,80c0-.08.11-.1.12-.45s.31-.28.65-.11c.12-.63-1.42-2.75-2.5-3.88a1.29,1.29,0,0,1,.15,1.15c.37.33,1.39.5,1.41,1.27-.31.6-.56,0-1-.3A1.84,1.84,0,0,1,79.06,79a4,4,0,0,0,.13.75,2.79,2.79,0,0,0,.16.42c0,.1,0,.07.06.1s.42-.28.37-.36C79.84,80,79.68,80.06,79.82,80Z"/><path class="cls-1" d="M78.92,75.38l.12-.14a3.16,3.16,0,0,1-1.12-.71,1.3,1.3,0,0,0,.1.93l.89-.19Z"/><path class="cls-1" d="M79.81,75c.26.73,0,1.2.72,1.86.45-.26,0-.73.12-1.14-.69.47,0-.46-.79-.64a.81.81,0,0,1,.33-.33,2.85,2.85,0,0,1-.6-.18l0,0h0c.09.08.13.12.06.09s0,0,0,0a2.18,2.18,0,0,1,.11.27c-.32-.07-.14-.17-.11-.27l-.05-.11h0l-.3.32-.29.33C79.27,75.28,79.47,75.18,79.81,75Z"/><path class="cls-1" d="M85.48,76.39a.34.34,0,0,1-.1-.11C85.37,76.37,85.38,76.43,85.48,76.39Z"/><path class="cls-1" d="M85,76.23c0-.11-.07-.35.14-.38s.15.26.26.44c0-.21.15-.58-.34-.67v.1A2.39,2.39,0,0,1,83.82,75,7.22,7.22,0,0,0,85,76.23Z"/><path class="cls-1" d="M82.55,75.91l-.46.6.64.4-.21-.32C83,76.55,82.65,76.18,82.55,75.91Z"/><polygon class="cls-1" points="77.69 75.12 77.32 74.3 77.58 75.55 77.69 75.12"/><polygon class="cls-1" points="76.86 75.5 76.49 74.78 76.5 75.28 76.86 75.5"/><path class="cls-1" d="M34.74,96.52l-.2-.06Z"/><path class="cls-1" d="M36,97.27l.07,0C36,97.22,36,97.24,36,97.27Z"/><path class="cls-1" d="M56.12,84.1c-.88-.93-2.14-2.44-1.37-1.17l.8,1.21C55.62,83.82,55.84,83.89,56.12,84.1Z"/><path class="cls-1" d="M47,98.88h.09l.07-.14c0-.15-.06-.46-.09-.67C47.11,98.39,47.15,98.91,47,98.88Z"/><path class="cls-1" d="M47,99.71l-.38.09A1.63,1.63,0,0,0,47,99.71Z"/><path class="cls-1" d="M27.65,92.59l-.29,0C27.68,92.81,27.58,92.65,27.65,92.59Z"/><path class="cls-1" d="M68.24,79.13a1.73,1.73,0,0,0-1-.38C67.91,79.23,68.65,80,68.24,79.13Z"/><path class="cls-1" d="M39.65,89.18a2.22,2.22,0,0,0-.62.72A1.77,1.77,0,0,0,39.65,89.18Z"/><path class="cls-1" d="M66.58,79c.1.09.18.13.27.2.08-.25.17-.46.43-.48C66.81,78.39,66.4,78.21,66.58,79Z"/><path class="cls-1" d="M2.39,77.55l0,0S2.36,77.53,2.39,77.55Z"/><path class="cls-1" d="M1.6,69.67a3.29,3.29,0,0,1,.11.35A1,1,0,0,0,1.6,69.67Z"/><path class="cls-1" d="M73.14,76.34c.15-.12,0-.11,0,0Z"/><path class="cls-1" d="M76,79.44a1.4,1.4,0,0,0,.17.45A1.81,1.81,0,0,1,76,79.44Z"/><path class="cls-1" d="M68.62,86.4h0C68.67,86.4,68.66,86.4,68.62,86.4Z"/><path class="cls-1" d="M73.65,76.64a1.45,1.45,0,0,0-.39-.18A1.49,1.49,0,0,0,73.65,76.64Z"/><path class="cls-1" d="M73.37,76.24l.21,0C73.52,76.12,73.44,76,73.37,76.24Z"/><path class="cls-1" d="M72.91,76.48a.5.5,0,0,1,.35,0c-.07,0-.12-.09-.12-.13Z"/><path class="cls-1" d="M16.15,85.23l0,0C15.92,85.15,16,85.19,16.15,85.23Z"/><polygon class="cls-1" points="56.29 94.4 56.3 94.38 56.28 94.39 56.29 94.4"/><path class="cls-1" d="M55.76,94.86a.72.72,0,0,1,.52-.47l-.44-.31Z"/><path class="cls-1" d="M31.64,94.78l.34.38c-.63-.08-1-.37-.67.05.33-.43,1.66.9,2,.47l.22.26c-.08-.05-.1,0-.18-.08.41.53.59-.1,1.25.36.22.18.35.34.15.3l.6.2c.15.1.07.16-.08.06l.84.44h0a4.43,4.43,0,0,1,.65.06c.17.19-.13,0-.11.08l.52.15c.12.23-.33.13-.63-.07.17.72.41.08,1.26.94l-.5-.21c.16.44.58.56,1,1-.1-.17-.86-1.06-.27-.87a1.25,1.25,0,0,0,.65.32c-.07.18.23.3.58.49l-.11.23c.41.15.42,0,.68,0a1,1,0,0,1,.51.74c.68.44-.39-.59.42-.18a4.45,4.45,0,0,0,1.64.77c.38.32-.08.13,0,.29l.36,0c.08.05.05.11,0,.14.3.08,0-.27.5-.09,0-.06.11,0,.2.05l.17.16.1.1.1,0a1.41,1.41,0,0,0,.91-.49c.14,0-.05.21,0,.3a9.12,9.12,0,0,0,1.24-1.22l.56-.13c-.43,0,0-.5.4-.93H47s-.07-.15-.11-.21l-.21-.46-.3-.66.14-.76L46.6,96a8.49,8.49,0,0,1,.5,2c0-.2,0-.4,0-.59a3.23,3.23,0,0,1,.31.61c0,.12.09.24.13.37l0,.09v0a.85.85,0,0,1-.12.31l-.29,0c-.13.25-.25.52-.18.65a1,1,0,0,1,.21-.2c0,.07-.05.12,0,.14s.09-.09.19-.22l.24.19v-.13l1-.37a10,10,0,0,1,1.88-2c-.14.32.12.32.22.54-.39-.07-.75.56-1.31.83.29-.14.28,0,.23.08l.86-.77c.08.19.27,0,.55-.05-.38-.24.55-.62.87-.95.09.1.07.27-.4.51.65,0,.42-.78,1-.84-.11.07-.18.08-.19.17.2-.25.88-.54.79-.35l-.11.07c.76-.39,2.25-1.3,2.19-1.65a1.69,1.69,0,0,1,.09.49l.38-.87.14-.32c-.16-.46-.39-1-.55-1.44l-.56-1.45c.28.56.71,1.29,1.19,2.09l.34.56.06.06.11.13a.42.42,0,0,1-.07.64,1.85,1.85,0,0,0,.76-.46c-.14,0-.5-.18-.35-.3a4.29,4.29,0,0,0,1.09-.12c-.21.05-.23-.45.06-.6,0,.08.24.36.16.46l.49-.79c-.14.17.15.34.37.35-.12,0,.61-.35.78-.5l-.35.09c.83-.41.49-1,1.29-1.42-.05.13,0,.61.46.42a7.27,7.27,0,0,1,.25-.87l0-.07c0-.07-.09-.24-.13-.35l-.29-.75c-.19-.49-.35-1-.5-1.4a7.63,7.63,0,0,1-.46-2l.67.85,0-1.33c.26.64.58,1.47.92,2.4L62,89.46l.13.37.07.19c0,.07,0,0,0,.07l-.08.15a11,11,0,0,1-.65,1.09c.35-.09.16.08.6-.19.22,0-.16.3-.28.38L62.89,91c-.17-.19.67-.68.52-.84l-1,.89c-.17-.19.29-1,1.06-1.39.24,0,.08.47.14.53a1.89,1.89,0,0,1,.72-.54l-.25.3c.46-.16.5-.68,1.12-.76.18-.09.67,0,.62-.16a1.15,1.15,0,0,1-.6-.47l-.06-.09-.21-.36-.78-1.37c-.47-.85-.83-1.56-1-2A23.18,23.18,0,0,1,66,87.09a5.34,5.34,0,0,1,.41.57.13.13,0,0,1,0,.08.7.7,0,0,1,0,.24c0,.17-.1.35.07.36,0-.06.09-.23.14-.29.21-.05,0,.22.4,0-.06-.25.8-.44.08-.29.34-.28.43-.19.87-.46-.11,0-.08-.2,0-.41l.09-.16,0,0a.7.7,0,0,0,0-.14L68,86.23a2.88,2.88,0,0,1-.11-.89,5.45,5.45,0,0,0,.43.68c.15.21.33.45.32.38.79-.43,1.27-.58,2-1,.1,0,.48-.13.38,0a1.19,1.19,0,0,1,.36-.36c.54-.07-.48.32,0,.34,0-.14.48-.5.76-.76-.2-.13-.76.39-1,.65a.32.32,0,0,1,0-.25l0-.08,0,0L71,84.76c-.09-.26-.17-.52-.24-.78a5.94,5.94,0,0,1-.23-2.58c.35-.78,1,1.12.95.79,1.35-.28-.9-3.79.89-2.88,1.07,1,1.35,2.3,1.93,3.11-.24.72-1.2-.32-1.51-.1l.74.34c.07.48-.08,1-.47.73a.76.76,0,0,0,.35.21l.29-.13.75-.41a15.94,15.94,0,0,1,1.65-.86l.21-.23c0-.05.07,0,0-.13a1,1,0,0,0-.21-.3l-.19.31c-.78-.76-.18-1.52-.78-1.74,0-.82-.08-2,.75-1.73l.79,1.15c-.21-.34-.77-.54-.71-.1-.07-.63,1.76,1.2,1.12-.47l-.86-.64c0-.78-.15-2.19.57-2-.88-1,0,.18-1.17-1,1.27,1.54-1.36.38.17,2-1.29-1.45-1-.42-2.32-1.65.25.4.62.72.07.66a3,3,0,0,1,.11.39l0,0,.05,0c0,.07,0,.08,0,0a2.63,2.63,0,0,1,.58.54c.33,1-.35,1.27-.28,1.87-.36-.09-.18-.53-.57-.92l.1.9C73,78.16,72,77.77,72.23,77l-.56.15c-.63-.42-1.2-.5-1.23,0-.38-.12,0,1.35-.23.48l-.48,1-.15-.25c-.92.16-.67,2.45-2.72.89-.12.38-.2.85-.84.73L65.36,79c-.16.48-1.63-.55-1.2.53-1.92-2.51-2.06.1-3-.12L62,80.78c-.47.1-.66.66-.86,1.44l.73,1.19c.13,1.21-1.64-.32-2.28.13-.23-.5,0-.45.32-.23-2.47-2.43-.59,2.89-2.54,1.2.08.56-.15.46-.47.21,0,0,0,0,0-.09a.14.14,0,0,0-.09,0c-.21-.18-.44-.39-.66-.55a4.51,4.51,0,0,0,.62.58,1.11,1.11,0,0,0-.29.79l-.89-1.34s0,0,0,.06c-.51-.41.21.74.92,1.73a4.5,4.5,0,0,0,.2,1c-1.47-2.16-.12,1-1.75-1.24.53,1.25-.57,1.43.76,4-.2-.32-.35-.44-.25-.53-.4-.16-.8-.32-.61.5l-1.15-1.76.89,2.71a6.28,6.28,0,0,1-2-3.08c.49,2.56-.15,1.13.46,3.63l-.65-1.2c-.2.17.36,2-.35,1.05-1.82-2-2.7,1.06-5.24-.37,1.16,1.72.78,1.41.3,1s-.84-.95-.12.48A11.7,11.7,0,0,1,45.87,90c.11.53-.16.28-.3.2s-.16,0,.22,1.35c-.37-.88-.46-1.37-.69-1.88.07.21.24.85,0,.33a11.26,11.26,0,0,1-.38-1.21c0,.33.81,3.2,1.6,5.9-.61-1.11-.59-.88-.34,1a4.41,4.41,0,0,1-.46-2.19c-.2,0-.94-.78-.69,1.52-.11-.55-.21,0-.23.27-.34.1-.37-.11-.71.31L44,96c0,1.45-.14,1.77-.25,1.5s-.21-.76-.37-.67l0-.28c-.28-1.23-.33-1-.43-.88s-.2.27-.33-1.06l-.22,1.72c-.3,1.8-.42,1.15-.47.21s0-2.15-.35-1.6l-.1,1c-.27.53-.13-.77.18-2.24s.76-3.1.8-3.36a2.6,2.6,0,0,1,.3-.63c.54-2.25-.76,2-1.2,2.3.42-1.14,1.18-2.76,1.18-3.08.37-.92-1.84,3.18-1.45.81A4.85,4.85,0,0,1,40,91.91c-.58.05.61-3.65-1.23-1.33A3.18,3.18,0,0,1,39,89.9c-.7.47-1.67.51-2.65,1.76C39,86.49,33,93,35.63,88.4l-1.14-.28.29-.45c-.47-.63-1.33.34-2.17,1.3a2.33,2.33,0,0,1,.53-1c-.41-1.4-.63-1.23-2.69.56l.75-1.48c-.69.71-.08-2.92-2-1.73a2.89,2.89,0,0,1,.47-.58c-1,.56-1.07-.71-1.31-1.5s-.66-1.09-2.27,1.27l-1.39.86c.66.84-1.35,2-1.46,3.05-.5.09,0-2,.53-2l-.07.28c1.62-2.45-.58-1.47.42-3.15-1.83-.75-2.81-2.88-4.46-3.68l-.82,1.84-.52-.37c.08-.48.58-1.45,1-1.19.35-1.08-1.18.52-1.4.88-.42-1.06,1.47-1.86,1.25-2l-.42,0,0,.23c-.68.58-1.13,1.3-1.59,1-.13-.48.43-1.1.34-1.22.07-.12.06-.19-.17-.13l-.67-.45-.44,1.41c-.69.49-.65-.39-1.15,1.22a1.44,1.44,0,0,0-.84-2c-.66-.3-1.41-.42-1.38-.8-1,.65-1.39.41-1.89.06,0,.29-.64,1.59-1,1.19,1.64-2.46-.24-1.52.37-3.42-.31,1.29-1.58-.27-1.93,1.54-.3-.37.48-.88.48-1.55-1.48.46-1.87-1.38-3.3-1.5-.16.24-.18.71-.66,1l0-.75,0-.72c-.32,0-1,1.29-1,.32,0,.22-.13.55-.33.56a2.94,2.94,0,0,0-.74-.63,4.24,4.24,0,0,0-.43-.22L2,73.94c-.23,0-.22-.19-.28-.32a.76.76,0,0,1-.07-.21v-.28c0-.81.33-1.49.33-3-.12.35-.21.12-.28-.15,0,.17-.27,0-.4,0A6.5,6.5,0,0,0,1.43,69c-.34-.2-.32-1.16-.55-1.27L1,68c-.29-.45-.54.64-.72.57.18.51-.29,1.34,0,2.18,0,.18-.07-.16-.12-.06a1.89,1.89,0,0,1,.06,1l0-.06c0,.76,0,1.3-.05,1.89l-.06,1a3.44,3.44,0,0,0,0,1.09l.08-.22a4.67,4.67,0,0,1,0,.57c.19.17-.15-.83.08-.72,0,.29-.18.94.51,1.15.47.28.92.56,1,.77.42.25,0-.2.37,0l.07.14.16,0c.27.18.36.35.33.42a2.3,2.3,0,0,0-.28-.14,8.65,8.65,0,0,0,1.14.68l-.38-.29c1.2.62,2.56,1.56,3.77,2.07l-.05-.11c.92.39.65.47,1.62,1h0a2.57,2.57,0,0,1,.75.33c-.28-.07.37.4,0,.3,1,.43.52.18,1.26.3l.08.19a1.51,1.51,0,0,1,.8.24c-.44-.14.21.34-.29.2.85.81,1.6.63,1.86,1.24.63,0-.76-.67-.47-.58-.16-.22.5,0,.8.21s.32.7,1.11,1.16c-.08,0-.1,0-.17-.08.25.25.64.24.93.58.31-.07.47.29.66.08L15,84.65a3.76,3.76,0,0,1,1.6.66,1.59,1.59,0,0,1-.48-.08c.16.19.41.18.58.37-.2.21-.92-.47-1.46-.54.16.23.94.32.57.45.51-.14.76.5,1.44.56l-.12.12a1.74,1.74,0,0,1,.47.16l-.39,0c.53.09.76.63,1.22.79-.88-.51-.09-.29-.4-.62,1.19.43.4.75,1.64,1.39-.18-.08-.56-.45-.27-.37a2.75,2.75,0,0,1,.58.56c.82.44,0-.23.36-.12.17.34.44.16.82.3l-.09.15c.85.63.43-.18,1.18.42h-.47l.46.19-.19.12a2.5,2.5,0,0,1,1.1.58c0-.17.22-.25.63,0,.22.25-.24.06.35.37a.47.47,0,0,1-.56-.23c-.05,0-.18,0-.24.06a3.33,3.33,0,0,0,.94.58,1,1,0,0,1-.2-.17l1,.27c.1.14,0,.12-.16.11a6,6,0,0,1,.59.21c-.14.09-.2.23-.58.09l.87.32c0,.09.32.39.19.38.39.33,1.22.38,1.74.82a.53.53,0,0,1,.25.06,5.25,5.25,0,0,0,1.67,1l.23.45c.54.24-.33-.59.57-.18.64.27.11.33.28.52a2.2,2.2,0,0,1,1.46.62A3.58,3.58,0,0,1,31.64,94.78ZM38,98.34c-.15,0-.46-.08-.51-.24C37.78,98,37.84,98.15,38,98.34Zm10,.36a.55.55,0,0,1-.41.19A1.11,1.11,0,0,1,48.08,98.7ZM71.61,77.9l0,.06C71.09,77.67,71.29,77.79,71.61,77.9Zm.87.21a.88.88,0,0,0-.22-.44c.11.28,0,.35-.22.34C72.24,78.26,72.43,78.42,72.48,78.12Zm-55.35,1.3,0,.34C16.64,80,16.88,79.7,17.13,79.42Z"/><path class="cls-1" d="M47,99.61a.13.13,0,0,1-.08-.07C46.91,99.6,46.92,99.64,47,99.61Z"/><path class="cls-1" d="M27.7,92.59h0l0,0Z"/><path class="cls-1" d="M66.72,88.3a.67.67,0,0,1-.27.05S66.54,88.39,66.72,88.3Z"/><path class="cls-1" d="M74.81,75.27l-.26.38c.17-.11.36.07.54.18C75,75.61,74.7,75.32,74.81,75.27Z"/><path class="cls-1" d="M81.21,79.12c0-.06.13,0,.14-.14l-.23-.36a.34.34,0,0,0-.14.33C81,79,81.11,79.21,81.21,79.12Z"/><path class="cls-1" d="M76.95,78.18c.47.76.56.38.74.12,0,0,0,0,0,0C77.12,77.24,77,77.7,76.95,78.18Z"/><path class="cls-1" d="M77.74,78.25a.32.32,0,0,1,.24-.13C77.76,77.69,77.82,78.07,77.74,78.25Z"/><path class="cls-1" d="M72.93,77.24c.26.17-.54-1.11-.27-.79C72.19,75.32,72.54,78.08,72.93,77.24Z"/><polygon class="cls-1" points="78.61 80.6 77.98 79.71 78.27 80.55 78.61 80.6"/><path class="cls-1" d="M76.18,81l.57.06a.52.52,0,0,1-.09-.4C76.4,80.76,76,80.71,76.18,81Z"/><path class="cls-1" d="M76.67,80.66a.31.31,0,0,0,.24-.34A.58.58,0,0,0,76.67,80.66Z"/><polygon class="cls-1" points="78.08 80.96 77.95 81 77.66 81.16 78.08 80.96"/><path class="cls-1" d="M71.65,83.18l-.25.58c.19.43.45.6.52.35S71.94,83.53,71.65,83.18Z"/><path class="cls-1" d="M73.76,83.76a.47.47,0,0,1-.26,0l.09.19Z"/><path class="cls-1" d="M72.51,84.55c0,.08-.55.52,0,.18C72.52,84.65,72.93,84.35,72.51,84.55Z"/><path class="cls-1" d="M65.73,88.15l.11-.07-.44-.75L64.62,86l.74,1.39C65.86,88.32,65.69,88.08,65.73,88.15Z"/><path class="cls-1" d="M60.35,92.34c.57-.22,0-.28.53-.45.08-.15-.43.14-.35,0C60.27,92.15,60.07,92.2,60.35,92.34Z"/><path class="cls-1" d="M60.53,91.89l.13-.14A.78.78,0,0,0,60.53,91.89Z"/><polygon class="cls-1" points="1.42 68.25 1.34 67.86 1.33 68.11 1.42 68.25"/><path class="cls-1" d="M1,67.5l.13-.09L1,67.3l-.1-.12A.88.88,0,0,1,1,67.5Z"/><path class="cls-1" d="M38.85,99.41l.05,0c0-.1-.12-.15-.29-.26Z"/><polygon class="cls-1" points="34.2 96.49 34.27 96.54 34.24 96.25 34.2 96.49"/><path class="cls-1" d="M30.23,94.52c.15.1.36.16.51.26C30.38,94.62,30.33,94.25,30.23,94.52Z"/></g></g></svg>